HIERARCHY
ROOT Hips
{
	OFFSET 0.000000 0.000000 0.000000
	CHANNELS 6 Xposition Yposition Zposition Zrotation Yrotation Xrotation 
	JOINT LHipJoint
	{
		OFFSET 0.000000 0.000000 0.000000
		CHANNELS 3 Zrotation Yrotation Xrotation
		JOINT LeftUpLeg
		{
			OFFSET 1.363060 -1.794630 0.839290
			CHANNELS 3 Zrotation Yrotation Xrotation
			JOINT LeftLeg
			{
				OFFSET 2.448110 -6.726130 0.000000
				CHANNELS 3 Zrotation Yrotation Xrotation
				JOINT LeftFoot
				{
					OFFSET 2.562200 -7.039590 0.000000
					CHANNELS 3 Zrotation Yrotation Xrotation
					JOINT LeftToeBase
					{
						OFFSET 0.157640 -0.433110 2.322550
						CHANNELS 3 Zrotation Yrotation Xrotation
						End Site
						{
							OFFSET 0.000000 0.000000 0.000000
						}
					}
				}
			}
		}
	}
	JOINT RHipJoint
	{
		OFFSET 0.000000 0.000000 0.000000
		CHANNELS 3 Zrotation Yrotation Xrotation
		JOINT RightUpLeg
		{
			OFFSET -1.305520 -1.794630 0.839290
			CHANNELS 3 Zrotation Yrotation Xrotation
			JOINT RightLeg
			{
				OFFSET -2.542530 -6.985550 0.000000
				CHANNELS 3 Zrotation Yrotation Xrotation
				JOINT RightFoot
				{
					OFFSET -2.568260 -7.056230 0.000000
					CHANNELS 3 Zrotation Yrotation Xrotation
					JOINT RightToeBase
					{
						OFFSET -0.164730 -0.452590 2.363150
						CHANNELS 3 Zrotation Yrotation Xrotation
						End Site
						{
							OFFSET 0.000000 0.000000 0.000000
						}
					}
				}
			}
		}
	}
	JOINT LowerBack
	{
		OFFSET 0.000000 0.000000 0.000000
		CHANNELS 3 Zrotation Yrotation Xrotation
		JOINT Spine
		{
			OFFSET 0.028270 2.035590 -0.193380
			CHANNELS 3 Zrotation Yrotation Xrotation
			JOINT Spine1
			{
				OFFSET 0.056720 2.048850 -0.042750
				CHANNELS 3 Zrotation Yrotation Xrotation
				JOINT Neck
				{
					OFFSET 0.000000 0.000000 0.000000
					CHANNELS 3 Zrotation Yrotation Xrotation
					JOINT Neck1
					{
						OFFSET -0.054170 1.746240 0.172020
						CHANNELS 3 Zrotation Yrotation Xrotation
						JOINT Head
						{
							OFFSET 0.104070 1.761360 -0.123970
							CHANNELS 3 Zrotation Yrotation Xrotation
							End Site
							{
								OFFSET 0.000000 0.000000 0.000000
							}
						}
					}
				}
				JOINT LeftShoulder
				{
					OFFSET 0.000000 0.000000 0.000000
					CHANNELS 3 Zrotation Yrotation Xrotation
					JOINT LeftArm
					{
						OFFSET 3.362410 1.200890 -0.311210
						CHANNELS 3 Zrotation Yrotation Xrotation
						JOINT LeftForeArm
						{
							OFFSET 4.983000 -0.000000 -0.000000
							CHANNELS 3 Zrotation Yrotation Xrotation
							JOINT LeftHand
							{
								OFFSET 3.483560 -0.000000 -0.000000
								CHANNELS 3 Zrotation Yrotation Xrotation
								JOINT LeftFingerBase
								{
									OFFSET 0.000000 0.000000 0.000000
									CHANNELS 3 Zrotation Yrotation Xrotation
									JOINT LeftHandIndex1
									{
										OFFSET 0.715260 -0.000000 -0.000000
										CHANNELS 3 Zrotation Yrotation Xrotation
										End Site
										{
											OFFSET 0.000000 0.000000 0.000000
										}
									}
								}
								JOINT LThumb
								{
									OFFSET 0.000000 0.000000 0.000000
									CHANNELS 3 Zrotation Yrotation Xrotation
									End Site
									{
										OFFSET 0.000000 0.000000 0.000000
									}
								}
							}
						}
					}
				}
				JOINT RightShoulder
				{
					OFFSET 0.000000 0.000000 0.000000
					CHANNELS 3 Zrotation Yrotation Xrotation
					JOINT RightArm
					{
						OFFSET -3.136600 1.374050 -0.404650
						CHANNELS 3 Zrotation Yrotation Xrotation
						JOINT RightForeArm
						{
							OFFSET -5.241900 -0.000000 -0.000000
							CHANNELS 3 Zrotation Yrotation Xrotation
							JOINT RightHand
							{
								OFFSET -3.444170 -0.000000 -0.000000
								CHANNELS 3 Zrotation Yrotation Xrotation
								JOINT RightFingerBase
								{
									OFFSET 0.000000 0.000000 0.000000
									CHANNELS 3 Zrotation Yrotation Xrotation
									JOINT RightHandIndex1
									{
										OFFSET -0.622530 -0.000000 -0.000000
										CHANNELS 3 Zrotation Yrotation Xrotation
										End Site
										{
											OFFSET 0.000000 0.000000 0.000000
										}
									}
								}
								JOINT RThumb
								{
									OFFSET 0.000000 0.000000 0.000000
									CHANNELS 3 Zrotation Yrotation Xrotation
									End Site
									{
										OFFSET 0.000000 0.000000 0.000000
									}
								}
							}
						}
					}
				}
			}
		}
	}
}
MOTION
Frames: 8
Frame Time: 0.008333
5.534236 17.883307 -35.870527 -5.500740 9.250974 12.308480 -2.542004 -1.165935 -1.132121 -2.852259 1.021090 -30.595585 5.214204 14.261514 43.055306 -0.472071 8.371714 -13.666308 0.205000 -2.915600 -8.043900 1.013871 0.369489 -0.749310 23.653720 1.865828 -25.794959 -3.088550 -10.427846 31.198295 -0.420737 -8.942589 -20.219583 -4.946600 -13.323400 40.591500 4.707941 2.223501 1.674882 2.254535 2.837354 -4.151392 2.397565 1.400949 1.362912 -4.162852 -1.043337 -7.047373 2.067797 -1.638617 -1.122428 -0.167300 -0.860100 -1.058200 10.401312 -3.566808 1.307568 -88.663229 6.469985 71.078429 109.184174 -55.103940 -70.141217 -1.336566 0.426244 -34.651306 -7.625800 20.091291 -2.213700 -7.125000 0.000000 0.000000 -32.460400 46.185900 -1.062300 -8.200655 2.932460 1.146271 92.626186 -1.244517 36.769166 -20.212086 30.481388 -5.203797 0.323736 -0.881548 18.323308 -24.352219 -18.085808 7.828300 7.125000 0.000000 0.000000 2.908400 -48.799400 -0.272800 
5.526723 17.928597 -35.805026 -5.112593 8.690265 11.843951 -2.579154 -1.144843 -1.089636 -3.472551 1.458304 -30.272834 5.391912 14.428585 43.731750 -0.608689 9.114569 -13.171281 0.060400 -1.586200 -4.363300 1.017341 0.357679 -0.752751 23.428888 0.517969 -24.778276 -2.884928 -10.110849 30.089884 -0.340881 -8.629885 -19.007974 -4.607600 -12.927800 39.098900 4.650992 2.282363 1.579374 2.123868 2.893308 -3.884194 2.248762 1.416780 1.900603 -4.264520 -1.156499 -7.029898 2.144116 -1.799822 -1.450426 -0.115600 -0.940100 -1.179000 10.384214 -3.563873 1.349709 -89.024855 6.407838 70.099481 106.129025 -55.798190 -66.946134 -1.487805 0.439151 -32.985517 -5.939070 20.392433 -1.627900 -7.125000 0.000000 0.000000 -31.026500 46.628900 -1.378300 -8.210700 2.883110 1.146553 92.479630 -1.184395 36.893455 -20.339936 30.648224 -5.265406 0.327311 -0.880854 18.260005 -24.454233 -18.079148 7.862200 7.125000 0.000000 0.000000 2.805400 -48.808400 -0.263700 
5.483655 17.927750 -35.767778 -5.719826 7.826849 11.046092 -2.488852 -1.096838 -1.067434 -2.905720 2.303591 -30.177323 5.691117 14.697193 44.765317 -0.710121 9.617099 -12.720347 0.016400 -0.828000 -2.275700 0.997338 0.329691 -0.759752 24.224514 1.411778 -23.279138 -2.819311 -9.973761 29.666529 -0.427226 -8.335422 -19.624029 -5.165300 -13.567500 41.531900 5.107788 2.460082 2.183039 2.224300 3.171934 -3.653843 2.227051 1.557077 2.007056 -4.291602 -1.265118 -7.120557 2.148237 -1.943995 -1.688880 -0.102000 -1.013300 -1.240400 10.388029 -3.560983 1.395987 -89.440934 6.295456 68.968951 102.841998 -56.525587 -63.492499 -1.584947 0.499235 -31.211032 -4.273456 19.450037 -0.993400 -7.125000 0.000000 0.000000 -29.014300 45.968500 -0.757700 -8.195164 2.859134 1.142972 92.390013 -1.234443 36.926640 -20.509067 30.846801 -5.342587 0.333628 -0.882920 18.418750 -24.398321 -18.138097 7.871600 7.125000 0.000000 0.000000 2.863600 -48.865500 -0.273200 
5.459635 17.942459 -35.781111 -5.158013 8.339801 11.359858 -2.517895 -1.166077 -1.173848 -3.552942 1.620957 -31.051729 5.950226 14.923569 45.732792 -0.823203 10.333388 -12.366225 0.010100 0.648900 1.783200 1.004064 0.345151 -0.726087 23.809346 0.406895 -23.752318 -2.735548 -9.832402 29.211254 -0.317546 -8.702989 -18.826726 -4.724000 -13.066100 39.616500 4.860950 2.210155 2.230398 2.142867 2.843233 -3.748597 2.205445 1.397196 1.853409 -4.317449 -1.368283 -6.959536 2.115527 -2.103683 -2.065466 -0.096100 -1.094300 -1.391400 10.386612 -3.544062 1.444528 -89.909173 6.144839 67.811105 99.149405 -57.303474 -59.709501 -1.690669 0.558165 -29.356789 -2.911944 19.116578 -0.522700 -7.125000 0.000000 0.000000 -27.563100 45.794300 -0.585200 -8.206823 2.817449 1.112647 92.118852 -0.930646 37.178447 -20.441736 30.766061 -5.313893 0.331314 -0.880424 18.133439 -24.489332 -18.194545 7.925500 7.125000 0.000000 0.000000 2.792500 -48.937800 -0.271400 
5.424821 17.944999 -35.780159 -5.347506 8.066741 11.090902 -2.481150 -1.180451 -1.219155 -3.526876 1.778661 -31.461085 6.230373 15.165627 46.746763 -0.794235 10.301937 -12.609390 0.129200 2.316800 6.382000 0.994437 0.338301 -0.722124 24.134018 0.826780 -23.185169 -2.688434 -9.736004 28.920836 -0.312497 -8.901369 -18.997101 -4.795300 -13.149500 39.930500 4.962193 2.274906 2.455497 2.214764 2.937404 -3.596438 2.336133 1.450196 2.021245 -4.363078 -1.432861 -6.853750 2.116490 -2.211082 -2.505731 -0.076800 -1.149500 -1.559500 10.405024 -3.502794 1.502218 -90.285060 5.375131 67.009389 95.281117 -58.080102 -55.933075 -1.838524 0.619197 -28.040402 -1.431032 20.181549 -0.029700 -7.125000 0.000000 0.000000 -26.616500 46.858400 -1.311400 -8.202423 2.749420 1.094232 91.893560 -0.650558 37.039036 -20.473421 30.806133 -5.331955 0.331984 -0.877519 18.062481 -24.535797 -18.336262 8.004500 7.125000 0.000000 0.000000 2.777600 -49.099500 -0.281000 
5.394346 17.950184 -35.772434 -5.343688 7.875381 10.882200 -2.463812 -1.196169 -1.258337 -3.660623 1.829369 -31.834040 6.491343 15.381389 47.676812 -0.799392 10.361384 -12.513358 0.297700 3.508300 9.697300 0.990860 0.335684 -0.714029 24.250259 0.887164 -22.815629 -2.663000 -9.682612 28.760732 -0.314344 -8.906792 -19.024049 -4.819500 -13.177600 40.037100 4.993848 2.266247 2.697718 2.231686 2.940236 -3.505787 2.384944 1.454871 2.078937 -4.404212 -1.505705 -6.784693 2.118646 -2.323560 -2.842618 -0.058200 -1.206200 -1.686600 10.417447 -3.474336 1.575369 -90.709297 5.007972 65.891894 91.503790 -58.750512 -52.419184 -1.925248 0.739814 -26.428635 0.133552 20.635020 0.503900 -7.125000 0.000000 0.000000 -25.338700 47.373100 -1.581300 -8.202590 2.697842 1.073454 91.692178 -0.473073 37.054117 -20.514426 30.855106 -5.352757 0.333242 -0.875865 17.973283 -24.586236 -18.412291 8.055900 7.125000 0.000000 0.000000 2.744500 -49.190000 -0.283800 
5.363765 17.953993 -35.767143 -5.348004 7.696427 10.698768 -2.450642 -1.212705 -1.295866 -3.795309 1.844187 -32.196044 6.726470 15.570913 48.512389 -0.765266 10.139534 -12.396568 0.475200 4.421000 12.264100 0.989085 0.333768 -0.705361 24.370467 1.038021 -22.429536 -2.628619 -9.612787 28.549592 -0.313211 -8.979664 -19.095382 -4.864000 -13.228900 40.231600 5.014412 2.249498 2.952282 2.254519 2.934956 -3.435529 2.447474 1.456191 2.093048 -4.445178 -1.563302 -6.712909 2.122556 -2.415186 -3.149141 -0.039400 -1.252200 -1.804400 10.432375 -3.445608 1.654999 -91.147557 4.681565 64.754275 87.679773 -59.316861 -49.057028 -1.980508 0.888757 -24.840984 1.727651 21.191179 1.059400 -7.125000 0.000000 0.000000 -24.087500 47.976200 -1.871000 -8.202815 2.649068 1.051468 91.493552 -0.310433 37.053813 -20.547506 30.892730 -5.369294 0.334330 -0.874299 17.881249 -24.626645 -18.472388 8.096900 7.125000 0.000000 0.000000 2.717900 -49.261600 -0.285800 
5.335617 17.957697 -35.760583 -5.313920 7.514935 10.555621 -2.447669 -1.230217 -1.328660 -3.987288 1.816863 -32.521591 6.928444 15.730305 49.234094 -0.688437 9.592493 -12.242881 0.614500 5.017100 13.957200 0.990353 0.333636 -0.697175 24.432043 1.196399 -22.098637 -2.602115 -9.558400 28.386735 -0.312495 -9.052016 -19.170404 -4.885100 -13.253200 40.323700 5.007479 2.225290 3.171095 2.268255 2.917609 -3.385146 2.505513 1.450886 2.089811 -4.491564 -1.604153 -6.638921 2.135990 -2.483981 -3.414648 -0.017100 -1.286400 -1.909500 10.447197 -3.419736 1.736838 -91.598784 4.434364 63.618752 83.879416 -59.735191 -45.887189 -1.984299 1.071091 -23.271596 3.502319 21.446508 1.657400 -7.125000 0.000000 0.000000 -22.555500 48.317500 -1.937800 -8.204482 2.605025 1.029764 91.302466 -0.171114 37.051197 -20.569904 30.916917 -5.380580 0.335001 -0.872660 17.789664 -24.676768 -18.517706 8.134800 7.125000 0.000000 0.000000 2.679400 -49.318800 -0.285500 
